<mxfile host="65bd71144e">
    <diagram name="Page-1" id="Fgr3d5k8YYlaslC8WT8e">
        <mxGraphModel dx="1110" dy="546" grid="1" gridSize="10" guides="1" tooltips="1" connect="1" arrows="1" fold="1" page="1" pageScale="1" pageWidth="850" pageHeight="1100" math="0" shadow="0">
            <root>
                <mxCell id="0"/>
                <mxCell id="1" parent="0"/>
                <mxCell id="r0dUNY4dq7FPuojU4sUv-40" value="&lt;span style=&quot;color: rgb(0, 102, 0);&quot;&gt;&amp;nbsp;University Network 160.85.30.0/24&lt;/span&gt;" style="rounded=1;whiteSpace=wrap;html=1;align=left;verticalAlign=top;fillColor=none;arcSize=0;strokeColor=#006600;strokeWidth=2;" parent="1" vertex="1">
                    <mxGeometry x="100" y="130" width="840" height="400" as="geometry"/>
                </mxCell>
                <mxCell id="r0dUNY4dq7FPuojU4sUv-41" value="&lt;span style=&quot;color: rgb(0, 0, 204);&quot;&gt;&amp;nbsp;Private Network 192.168.0.0/24&lt;/span&gt;" style="rounded=1;whiteSpace=wrap;html=1;align=left;verticalAlign=top;fillColor=none;arcSize=0;strokeColor=#0000CC;strokeWidth=2;" parent="1" vertex="1">
                    <mxGeometry x="120" y="230" width="800" height="280" as="geometry"/>
                </mxCell>
                <mxCell id="r0dUNY4dq7FPuojU4sUv-42" value="Control Node" style="points=[[0,0],[0.25,0],[0.5,0],[0.75,0],[1,0],[1,0.25],[1,0.5],[1,0.75],[1,1],[0.75,1],[0.5,1],[0.25,1],[0,1],[0,0.75],[0,0.5],[0,0.25]];outlineConnect=0;gradientColor=none;html=1;whiteSpace=wrap;fontSize=12;fontStyle=0;container=1;pointerEvents=0;collapsible=0;recursiveResize=0;shape=mxgraph.aws4.group;grIcon=mxgraph.aws4.group_on_premise;strokeColor=#000000;fillColor=none;verticalAlign=top;align=left;spacingLeft=30;fontColor=light-dark(#000000, #8494aa);dashed=0;strokeWidth=2;" parent="1" vertex="1">
                    <mxGeometry x="140" y="350" width="240" height="140" as="geometry"/>
                </mxCell>
                <mxCell id="r0dUNY4dq7FPuojU4sUv-43" value="&lt;font style=&quot;font-size: 10px; color: rgb(0, 102, 0);&quot;&gt;Uni IP&lt;/font&gt;&lt;font style=&quot;font-size: 8px; color: rgb(0, 102, 0);&quot;&gt;&lt;br&gt;&lt;/font&gt;&lt;font style=&quot;font-size: 7px; color: rgb(0, 102, 0);&quot;&gt;160.85.30.104&lt;/font&gt;&lt;font style=&quot;font-size: 7px; color: rgba(0, 0, 0, 0);&quot;&gt;&lt;font&gt;&lt;br&gt;&lt;/font&gt;&lt;/font&gt;" style="rounded=0;whiteSpace=wrap;html=1;strokeColor=#006600;strokeWidth=2;fillColor=none;" parent="r0dUNY4dq7FPuojU4sUv-42" vertex="1">
                    <mxGeometry x="110" width="50" height="30" as="geometry"/>
                </mxCell>
                <mxCell id="r0dUNY4dq7FPuojU4sUv-44" value="&lt;div&gt;&lt;font style=&quot;font-size: 10px; color: rgb(0, 0, 204);&quot;&gt;Private IP&lt;/font&gt;&lt;/div&gt;&lt;div&gt;&lt;font style=&quot;font-size: 7px; color: rgb(0, 0, 204);&quot;&gt;192.168.0.104&lt;/font&gt;&lt;font style=&quot;font-size: 7px; color: rgba(0, 0, 0, 0);&quot;&gt;&lt;font&gt;&lt;br&gt;&lt;/font&gt;&lt;/font&gt;&lt;/div&gt;" style="rounded=0;whiteSpace=wrap;html=1;strokeColor=#0000CC;strokeWidth=2;fillColor=none;" parent="r0dUNY4dq7FPuojU4sUv-42" vertex="1">
                    <mxGeometry x="170" width="60" height="30" as="geometry"/>
                </mxCell>
                <mxCell id="r0dUNY4dq7FPuojU4sUv-45" value="boot" style="sketch=0;pointerEvents=1;shadow=0;dashed=0;html=1;strokeColor=none;fillColor=light-dark(#000000, #b2b3b4);aspect=fixed;labelPosition=center;verticalLabelPosition=bottom;verticalAlign=top;align=center;outlineConnect=0;shape=mxgraph.vvd.disk;" parent="r0dUNY4dq7FPuojU4sUv-42" vertex="1">
                    <mxGeometry x="10" y="60" width="35" height="50" as="geometry"/>
                </mxCell>
                <mxCell id="r0dUNY4dq7FPuojU4sUv-46" value="10T" style="sketch=0;pointerEvents=1;shadow=0;dashed=0;html=1;strokeColor=none;fillColor=#000000;aspect=fixed;labelPosition=center;verticalLabelPosition=bottom;verticalAlign=top;align=center;outlineConnect=0;shape=mxgraph.vvd.disk;" parent="r0dUNY4dq7FPuojU4sUv-42" vertex="1">
                    <mxGeometry x="90" y="60" width="35" height="50" as="geometry"/>
                </mxCell>
                <mxCell id="r0dUNY4dq7FPuojU4sUv-47" value="10T" style="sketch=0;pointerEvents=1;shadow=0;dashed=0;html=1;strokeColor=none;fillColor=#000000;aspect=fixed;labelPosition=center;verticalLabelPosition=bottom;verticalAlign=top;align=center;outlineConnect=0;shape=mxgraph.vvd.disk;" parent="r0dUNY4dq7FPuojU4sUv-42" vertex="1">
                    <mxGeometry x="50" y="60" width="35" height="50" as="geometry"/>
                </mxCell>
                <mxCell id="r0dUNY4dq7FPuojU4sUv-48" value="10T" style="sketch=0;pointerEvents=1;shadow=0;dashed=0;html=1;strokeColor=none;fillColor=#000000;aspect=fixed;labelPosition=center;verticalLabelPosition=bottom;verticalAlign=top;align=center;outlineConnect=0;shape=mxgraph.vvd.disk;" parent="r0dUNY4dq7FPuojU4sUv-42" vertex="1">
                    <mxGeometry x="130" y="60" width="35" height="50" as="geometry"/>
                </mxCell>
                <mxCell id="r0dUNY4dq7FPuojU4sUv-49" value="265G" style="sketch=0;pointerEvents=1;shadow=0;dashed=0;html=1;strokeColor=none;fillColor=#000000;aspect=fixed;labelPosition=center;verticalLabelPosition=bottom;verticalAlign=top;align=center;outlineConnect=0;shape=mxgraph.vvd.ssd;" parent="r0dUNY4dq7FPuojU4sUv-42" vertex="1">
                    <mxGeometry x="170" y="74.5" width="50" height="35.5" as="geometry"/>
                </mxCell>
                <mxCell id="r0dUNY4dq7FPuojU4sUv-59" value="Worker 1" style="points=[[0,0],[0.25,0],[0.5,0],[0.75,0],[1,0],[1,0.25],[1,0.5],[1,0.75],[1,1],[0.75,1],[0.5,1],[0.25,1],[0,1],[0,0.75],[0,0.5],[0,0.25]];outlineConnect=0;gradientColor=none;html=1;whiteSpace=wrap;fontSize=12;fontStyle=0;container=1;pointerEvents=0;collapsible=0;recursiveResize=0;shape=mxgraph.aws4.group;grIcon=mxgraph.aws4.group_on_premise;strokeColor=#000000;fillColor=none;verticalAlign=top;align=left;spacingLeft=30;fontColor=light-dark(#000000, #8494aa);dashed=0;strokeWidth=2;" parent="1" vertex="1">
                    <mxGeometry x="400" y="350" width="240" height="140" as="geometry"/>
                </mxCell>
                <mxCell id="r0dUNY4dq7FPuojU4sUv-60" value="&lt;font style=&quot;font-size: 10px; color: rgb(0, 102, 0);&quot;&gt;Uni IP&lt;/font&gt;&lt;font style=&quot;font-size: 8px; color: rgb(0, 102, 0);&quot;&gt;&lt;br&gt;&lt;/font&gt;&lt;font style=&quot;font-size: 7px; color: rgb(0, 102, 0);&quot;&gt;160.85.30.104&lt;/font&gt;&lt;font style=&quot;font-size: 7px; color: rgba(0, 0, 0, 0);&quot;&gt;&lt;font&gt;&lt;br&gt;&lt;/font&gt;&lt;/font&gt;" style="rounded=0;whiteSpace=wrap;html=1;strokeColor=#006600;strokeWidth=2;fillColor=none;" parent="r0dUNY4dq7FPuojU4sUv-59" vertex="1">
                    <mxGeometry x="110" width="50" height="30" as="geometry"/>
                </mxCell>
                <mxCell id="r0dUNY4dq7FPuojU4sUv-61" value="&lt;div&gt;&lt;font style=&quot;font-size: 10px; color: rgb(0, 0, 204);&quot;&gt;Subnet IP&lt;/font&gt;&lt;/div&gt;&lt;div&gt;&lt;font style=&quot;font-size: 7px; color: rgb(0, 0, 204);&quot;&gt;192.168.0.104&lt;/font&gt;&lt;font style=&quot;font-size: 7px; color: rgba(0, 0, 0, 0);&quot;&gt;&lt;font&gt;&lt;br&gt;&lt;/font&gt;&lt;/font&gt;&lt;/div&gt;" style="rounded=0;whiteSpace=wrap;html=1;strokeColor=#0000CC;strokeWidth=2;fillColor=none;" parent="r0dUNY4dq7FPuojU4sUv-59" vertex="1">
                    <mxGeometry x="170" width="60" height="30" as="geometry"/>
                </mxCell>
                <mxCell id="r0dUNY4dq7FPuojU4sUv-62" value="boot" style="sketch=0;pointerEvents=1;shadow=0;dashed=0;html=1;strokeColor=none;fillColor=light-dark(#000000, #b2b3b4);aspect=fixed;labelPosition=center;verticalLabelPosition=bottom;verticalAlign=top;align=center;outlineConnect=0;shape=mxgraph.vvd.disk;" parent="r0dUNY4dq7FPuojU4sUv-59" vertex="1">
                    <mxGeometry x="10" y="60" width="35" height="50" as="geometry"/>
                </mxCell>
                <mxCell id="r0dUNY4dq7FPuojU4sUv-63" value="10T" style="sketch=0;pointerEvents=1;shadow=0;dashed=0;html=1;strokeColor=none;fillColor=#000000;aspect=fixed;labelPosition=center;verticalLabelPosition=bottom;verticalAlign=top;align=center;outlineConnect=0;shape=mxgraph.vvd.disk;" parent="r0dUNY4dq7FPuojU4sUv-59" vertex="1">
                    <mxGeometry x="90" y="60" width="35" height="50" as="geometry"/>
                </mxCell>
                <mxCell id="r0dUNY4dq7FPuojU4sUv-64" value="10T" style="sketch=0;pointerEvents=1;shadow=0;dashed=0;html=1;strokeColor=none;fillColor=#000000;aspect=fixed;labelPosition=center;verticalLabelPosition=bottom;verticalAlign=top;align=center;outlineConnect=0;shape=mxgraph.vvd.disk;" parent="r0dUNY4dq7FPuojU4sUv-59" vertex="1">
                    <mxGeometry x="50" y="60" width="35" height="50" as="geometry"/>
                </mxCell>
                <mxCell id="r0dUNY4dq7FPuojU4sUv-65" value="10T" style="sketch=0;pointerEvents=1;shadow=0;dashed=0;html=1;strokeColor=none;fillColor=#000000;aspect=fixed;labelPosition=center;verticalLabelPosition=bottom;verticalAlign=top;align=center;outlineConnect=0;shape=mxgraph.vvd.disk;" parent="r0dUNY4dq7FPuojU4sUv-59" vertex="1">
                    <mxGeometry x="130" y="60" width="35" height="50" as="geometry"/>
                </mxCell>
                <mxCell id="r0dUNY4dq7FPuojU4sUv-66" value="265G" style="sketch=0;pointerEvents=1;shadow=0;dashed=0;html=1;strokeColor=none;fillColor=#000000;aspect=fixed;labelPosition=center;verticalLabelPosition=bottom;verticalAlign=top;align=center;outlineConnect=0;shape=mxgraph.vvd.ssd;" parent="r0dUNY4dq7FPuojU4sUv-59" vertex="1">
                    <mxGeometry x="170" y="74.5" width="50" height="35.5" as="geometry"/>
                </mxCell>
                <mxCell id="r0dUNY4dq7FPuojU4sUv-67" value="Worker 2" style="points=[[0,0],[0.25,0],[0.5,0],[0.75,0],[1,0],[1,0.25],[1,0.5],[1,0.75],[1,1],[0.75,1],[0.5,1],[0.25,1],[0,1],[0,0.75],[0,0.5],[0,0.25]];outlineConnect=0;gradientColor=none;html=1;whiteSpace=wrap;fontSize=12;fontStyle=0;container=1;pointerEvents=0;collapsible=0;recursiveResize=0;shape=mxgraph.aws4.group;grIcon=mxgraph.aws4.group_on_premise;strokeColor=#000000;fillColor=none;verticalAlign=top;align=left;spacingLeft=30;fontColor=light-dark(#000000, #8494aa);dashed=0;strokeWidth=2;" parent="1" vertex="1">
                    <mxGeometry x="660" y="350" width="240" height="140" as="geometry"/>
                </mxCell>
                <mxCell id="r0dUNY4dq7FPuojU4sUv-68" value="&lt;font style=&quot;font-size: 10px; color: rgb(0, 102, 0);&quot;&gt;Uni IP&lt;/font&gt;&lt;font style=&quot;font-size: 8px; color: rgba(0, 0, 0, 0);&quot;&gt;&lt;br&gt;&lt;/font&gt;&lt;font style=&quot;font-size: 7px; color: rgb(0, 102, 0);&quot;&gt;160.85.30.104&lt;font&gt;&lt;br&gt;&lt;/font&gt;&lt;/font&gt;" style="rounded=0;whiteSpace=wrap;html=1;strokeColor=#006600;strokeWidth=2;fillColor=none;" parent="r0dUNY4dq7FPuojU4sUv-67" vertex="1">
                    <mxGeometry x="110" width="50" height="30" as="geometry"/>
                </mxCell>
                <mxCell id="r0dUNY4dq7FPuojU4sUv-69" value="&lt;div&gt;&lt;font style=&quot;font-size: 10px; color: rgb(0, 0, 204);&quot;&gt;Subnet IP&lt;/font&gt;&lt;/div&gt;&lt;div&gt;&lt;font style=&quot;font-size: 7px; color: rgb(0, 0, 204);&quot;&gt;192.168.0.104&lt;/font&gt;&lt;font style=&quot;font-size: 7px; color: rgba(0, 0, 0, 0);&quot;&gt;&lt;font&gt;&lt;br&gt;&lt;/font&gt;&lt;/font&gt;&lt;/div&gt;" style="rounded=0;whiteSpace=wrap;html=1;strokeColor=#0000CC;strokeWidth=2;fillColor=none;" parent="r0dUNY4dq7FPuojU4sUv-67" vertex="1">
                    <mxGeometry x="170" width="60" height="30" as="geometry"/>
                </mxCell>
                <mxCell id="r0dUNY4dq7FPuojU4sUv-70" value="boot" style="sketch=0;pointerEvents=1;shadow=0;dashed=0;html=1;strokeColor=none;fillColor=light-dark(#000000, #b2b3b4);aspect=fixed;labelPosition=center;verticalLabelPosition=bottom;verticalAlign=top;align=center;outlineConnect=0;shape=mxgraph.vvd.disk;" parent="r0dUNY4dq7FPuojU4sUv-67" vertex="1">
                    <mxGeometry x="10" y="60" width="35" height="50" as="geometry"/>
                </mxCell>
                <mxCell id="r0dUNY4dq7FPuojU4sUv-71" value="10T" style="sketch=0;pointerEvents=1;shadow=0;dashed=0;html=1;strokeColor=none;fillColor=#000000;aspect=fixed;labelPosition=center;verticalLabelPosition=bottom;verticalAlign=top;align=center;outlineConnect=0;shape=mxgraph.vvd.disk;" parent="r0dUNY4dq7FPuojU4sUv-67" vertex="1">
                    <mxGeometry x="90" y="60" width="35" height="50" as="geometry"/>
                </mxCell>
                <mxCell id="r0dUNY4dq7FPuojU4sUv-72" value="10T" style="sketch=0;pointerEvents=1;shadow=0;dashed=0;html=1;strokeColor=none;fillColor=#000000;aspect=fixed;labelPosition=center;verticalLabelPosition=bottom;verticalAlign=top;align=center;outlineConnect=0;shape=mxgraph.vvd.disk;" parent="r0dUNY4dq7FPuojU4sUv-67" vertex="1">
                    <mxGeometry x="50" y="60" width="35" height="50" as="geometry"/>
                </mxCell>
                <mxCell id="r0dUNY4dq7FPuojU4sUv-73" value="10T" style="sketch=0;pointerEvents=1;shadow=0;dashed=0;html=1;strokeColor=none;fillColor=#000000;aspect=fixed;labelPosition=center;verticalLabelPosition=bottom;verticalAlign=top;align=center;outlineConnect=0;shape=mxgraph.vvd.disk;" parent="r0dUNY4dq7FPuojU4sUv-67" vertex="1">
                    <mxGeometry x="130" y="60" width="35" height="50" as="geometry"/>
                </mxCell>
                <mxCell id="r0dUNY4dq7FPuojU4sUv-74" value="265G" style="sketch=0;pointerEvents=1;shadow=0;dashed=0;html=1;strokeColor=none;fillColor=#000000;aspect=fixed;labelPosition=center;verticalLabelPosition=bottom;verticalAlign=top;align=center;outlineConnect=0;shape=mxgraph.vvd.ssd;" parent="r0dUNY4dq7FPuojU4sUv-67" vertex="1">
                    <mxGeometry x="170" y="74.5" width="50" height="35.5" as="geometry"/>
                </mxCell>
                <mxCell id="r0dUNY4dq7FPuojU4sUv-75" value="" style="sketch=0;pointerEvents=1;shadow=0;dashed=0;html=1;strokeColor=none;fillColor=#000000;aspect=fixed;labelPosition=center;verticalLabelPosition=bottom;verticalAlign=top;align=center;outlineConnect=0;shape=mxgraph.vvd.vpn;" parent="1" vertex="1">
                    <mxGeometry x="560" y="150" width="60" height="60" as="geometry"/>
                </mxCell>
                <mxCell id="r0dUNY4dq7FPuojU4sUv-76" value="" style="sketch=0;pointerEvents=1;shadow=0;dashed=0;html=1;strokeColor=none;fillColor=#000000;aspect=fixed;labelPosition=center;verticalLabelPosition=bottom;verticalAlign=top;align=center;outlineConnect=0;shape=mxgraph.vvd.switch;" parent="1" vertex="1">
                    <mxGeometry x="620" y="280" width="60" height="60" as="geometry"/>
                </mxCell>
                <mxCell id="r0dUNY4dq7FPuojU4sUv-77" value="" style="endArrow=classic;startArrow=classic;html=1;rounded=0;exitX=0.5;exitY=0;exitDx=0;exitDy=0;strokeWidth=2;strokeColor=#0000CC;" parent="1" source="r0dUNY4dq7FPuojU4sUv-61" target="r0dUNY4dq7FPuojU4sUv-76" edge="1">
                    <mxGeometry width="50" height="50" relative="1" as="geometry">
                        <mxPoint x="550" y="320" as="sourcePoint"/>
                        <mxPoint x="600" y="270" as="targetPoint"/>
                        <Array as="points">
                            <mxPoint x="600" y="310"/>
                        </Array>
                    </mxGeometry>
                </mxCell>
                <mxCell id="r0dUNY4dq7FPuojU4sUv-78" value="" style="endArrow=classic;startArrow=classic;html=1;rounded=0;exitX=0.5;exitY=0;exitDx=0;exitDy=0;strokeWidth=2;strokeColor=#0000CC;" parent="1" source="r0dUNY4dq7FPuojU4sUv-44" target="r0dUNY4dq7FPuojU4sUv-76" edge="1">
                    <mxGeometry width="50" height="50" relative="1" as="geometry">
                        <mxPoint x="610" y="360" as="sourcePoint"/>
                        <mxPoint x="630" y="305" as="targetPoint"/>
                        <Array as="points">
                            <mxPoint x="340" y="310"/>
                        </Array>
                    </mxGeometry>
                </mxCell>
                <mxCell id="r0dUNY4dq7FPuojU4sUv-79" value="" style="endArrow=classic;startArrow=classic;html=1;rounded=0;exitX=0.5;exitY=0;exitDx=0;exitDy=0;strokeWidth=2;strokeColor=#0000CC;" parent="1" source="r0dUNY4dq7FPuojU4sUv-69" target="r0dUNY4dq7FPuojU4sUv-76" edge="1">
                    <mxGeometry width="50" height="50" relative="1" as="geometry">
                        <mxPoint x="610" y="360" as="sourcePoint"/>
                        <mxPoint x="630" y="300" as="targetPoint"/>
                        <Array as="points">
                            <mxPoint x="860" y="310"/>
                        </Array>
                    </mxGeometry>
                </mxCell>
                <mxCell id="r0dUNY4dq7FPuojU4sUv-81" value="" style="sketch=0;pointerEvents=1;shadow=0;dashed=0;html=1;strokeColor=none;fillColor=#006600;aspect=fixed;labelPosition=center;verticalLabelPosition=bottom;verticalAlign=top;align=center;outlineConnect=0;shape=mxgraph.vvd.laptop;" parent="1" vertex="1">
                    <mxGeometry x="347" y="150" width="77.78" height="56" as="geometry"/>
                </mxCell>
                <mxCell id="r0dUNY4dq7FPuojU4sUv-84" value="" style="sketch=0;pointerEvents=1;shadow=0;dashed=0;html=1;strokeColor=none;fillColor=#CC0000;aspect=fixed;labelPosition=center;verticalLabelPosition=bottom;verticalAlign=top;align=center;outlineConnect=0;shape=mxgraph.vvd.laptop;" parent="1" vertex="1">
                    <mxGeometry x="347" y="60" width="77.78" height="56" as="geometry"/>
                </mxCell>
                <mxCell id="r0dUNY4dq7FPuojU4sUv-91" value="" style="endArrow=classic;startArrow=classic;html=1;rounded=0;edgeStyle=orthogonalEdgeStyle;strokeColor=#006600;strokeWidth=2;" parent="1" source="r0dUNY4dq7FPuojU4sUv-60" target="r0dUNY4dq7FPuojU4sUv-81" edge="1">
                    <mxGeometry width="50" height="50" relative="1" as="geometry">
                        <mxPoint x="500" y="300" as="sourcePoint"/>
                        <mxPoint x="550" y="250" as="targetPoint"/>
                        <Array as="points">
                            <mxPoint x="520" y="190"/>
                        </Array>
                    </mxGeometry>
                </mxCell>
                <mxCell id="r0dUNY4dq7FPuojU4sUv-92" value="" style="endArrow=classic;startArrow=classic;html=1;rounded=0;edgeStyle=orthogonalEdgeStyle;strokeColor=#006600;strokeWidth=2;" parent="1" source="r0dUNY4dq7FPuojU4sUv-43" target="r0dUNY4dq7FPuojU4sUv-81" edge="1">
                    <mxGeometry width="50" height="50" relative="1" as="geometry">
                        <mxPoint x="534.78" y="350" as="sourcePoint"/>
                        <mxPoint x="424.78" y="220" as="targetPoint"/>
                        <Array as="points">
                            <mxPoint x="260" y="270"/>
                            <mxPoint x="520" y="270"/>
                            <mxPoint x="520" y="190"/>
                        </Array>
                    </mxGeometry>
                </mxCell>
                <mxCell id="r0dUNY4dq7FPuojU4sUv-94" value="" style="endArrow=classic;startArrow=classic;html=1;rounded=0;edgeStyle=orthogonalEdgeStyle;strokeColor=#006600;strokeWidth=2;" parent="1" source="r0dUNY4dq7FPuojU4sUv-68" target="r0dUNY4dq7FPuojU4sUv-81" edge="1">
                    <mxGeometry width="50" height="50" relative="1" as="geometry">
                        <mxPoint x="545" y="360" as="sourcePoint"/>
                        <mxPoint x="435" y="200" as="targetPoint"/>
                        <Array as="points">
                            <mxPoint x="780" y="270"/>
                            <mxPoint x="520" y="270"/>
                            <mxPoint x="520" y="190"/>
                        </Array>
                    </mxGeometry>
                </mxCell>
                <mxCell id="r0dUNY4dq7FPuojU4sUv-95" value="" style="endArrow=classic;startArrow=classic;html=1;rounded=0;edgeStyle=orthogonalEdgeStyle;strokeColor=#FF0000;strokeWidth=2;" parent="1" source="r0dUNY4dq7FPuojU4sUv-75" target="r0dUNY4dq7FPuojU4sUv-84" edge="1">
                    <mxGeometry width="50" height="50" relative="1" as="geometry">
                        <mxPoint x="790" y="360" as="sourcePoint"/>
                        <mxPoint x="435" y="200" as="targetPoint"/>
                        <Array as="points">
                            <mxPoint x="590" y="90"/>
                        </Array>
                    </mxGeometry>
                </mxCell>
                <mxCell id="r0dUNY4dq7FPuojU4sUv-96" value="" style="endArrow=classic;startArrow=classic;html=1;rounded=0;edgeStyle=orthogonalEdgeStyle;strokeColor=#FF0000;strokeWidth=2;" parent="1" source="r0dUNY4dq7FPuojU4sUv-75" target="r0dUNY4dq7FPuojU4sUv-43" edge="1">
                    <mxGeometry width="50" height="50" relative="1" as="geometry">
                        <mxPoint x="600" y="170" as="sourcePoint"/>
                        <mxPoint x="435" y="100" as="targetPoint"/>
                        <Array as="points">
                            <mxPoint x="590" y="260"/>
                            <mxPoint x="275" y="260"/>
                        </Array>
                    </mxGeometry>
                </mxCell>
                <mxCell id="r0dUNY4dq7FPuojU4sUv-97" value="" style="endArrow=classic;startArrow=classic;html=1;rounded=0;edgeStyle=orthogonalEdgeStyle;strokeColor=#FF0000;strokeWidth=2;" parent="1" source="r0dUNY4dq7FPuojU4sUv-75" target="r0dUNY4dq7FPuojU4sUv-60" edge="1">
                    <mxGeometry width="50" height="50" relative="1" as="geometry">
                        <mxPoint x="610" y="180" as="sourcePoint"/>
                        <mxPoint x="445" y="110" as="targetPoint"/>
                        <Array as="points">
                            <mxPoint x="590" y="260"/>
                            <mxPoint x="535" y="260"/>
                        </Array>
                    </mxGeometry>
                </mxCell>
                <mxCell id="r0dUNY4dq7FPuojU4sUv-98" value="" style="endArrow=classic;startArrow=classic;html=1;rounded=0;edgeStyle=orthogonalEdgeStyle;strokeColor=#FF0000;strokeWidth=2;" parent="1" source="r0dUNY4dq7FPuojU4sUv-75" target="r0dUNY4dq7FPuojU4sUv-68" edge="1">
                    <mxGeometry width="50" height="50" relative="1" as="geometry">
                        <mxPoint x="620" y="190" as="sourcePoint"/>
                        <mxPoint x="455" y="120" as="targetPoint"/>
                        <Array as="points">
                            <mxPoint x="590" y="260"/>
                            <mxPoint x="795" y="260"/>
                        </Array>
                    </mxGeometry>
                </mxCell>
            </root>
        </mxGraphModel>
    </diagram>
</mxfile>